<svg width="133" height="61" viewBox="0 0 133 61" fill="none" xmlns="http://www.w3.org/2000/svg">
<path d="M22.898 53.4706H26.6627H30.4275V49.7059V45.9412H26.6627H22.898V49.7059V53.4706ZM15.3686 45.9412H19.1333H22.898V42.1765V38.4118H19.1333H15.3686V42.1765V45.9412ZM7.83922 38.4118H11.6039H15.3686V34.6471V30.8824H11.6039H7.83922V34.6471V38.4118ZM0.309805 30.8824H4.07451H7.83922V27.1176V23.3529H4.07451H0.309805V27.1176V30.8824ZM7.83922 23.3529H11.6039H15.3686V19.5882V15.8235H11.6039H7.83922V19.5882V23.3529ZM15.3686 15.8235H19.1333H22.898V12.0588V8.29411H19.1333H15.3686V12.0588V15.8235ZM22.898 8.29411H26.6627H30.4275V4.52941V0.764702H26.6627H22.898V4.52941V8.29411ZM53.0598 61H56.8245H60.5892H64.3539H68.1186V57.2353V53.4706H64.3539H60.5892H56.8245H53.0598V57.2353V61ZM45.5304 53.4706H49.2951H53.0598V49.7059V45.9412V42.1765V38.4118H49.2951H45.5304V42.1765V45.9412V49.7059V53.4706ZM53.0598 38.4118H56.8245H60.5892H64.3539H68.1186H71.8833H75.648V42.1765V45.9412H71.8833H68.1186V49.7059V53.4706H71.8833H75.648V57.2353V61H79.4127H83.1775V57.2353V53.4706V49.7059V45.9412V42.1765V38.4118V34.6471V30.8824V27.1176V23.3529V19.5882V15.8235V12.0588V8.29411H79.4127H75.648V12.0588V15.8235V19.5882V23.3529V27.1176V30.8824H71.8833H68.1186H64.3539H60.5892H56.8245H53.0598V34.6471V38.4118ZM45.5304 15.8235H49.2951H53.0598V12.0588V8.29411H49.2951H45.5304V12.0588V15.8235ZM53.0598 8.29411H56.8245H60.5892H64.3539H68.1186H71.8833H75.648V4.52941V0.764702H71.8833H68.1186H64.3539H60.5892H56.8245H53.0598V4.52941V8.29411ZM102.06 53.4706H105.825H109.589V49.7059V45.9412H105.825H102.06V49.7059V53.4706ZM109.589 45.9412H113.354H117.119V42.1765V38.4118H113.354H109.589V42.1765V45.9412ZM117.119 38.4118H120.883H124.648V34.6471V30.8824H120.883H117.119V34.6471V38.4118ZM124.648 30.8824H128.413H132.177V27.1176V23.3529H128.413H124.648V27.1176V30.8824ZM117.119 23.3529H120.883H124.648V19.5882V15.8235H120.883H117.119V19.5882V23.3529ZM109.589 15.8235H113.354H117.119V12.0588V8.29411H113.354H109.589V12.0588V15.8235ZM102.06 8.29411H105.825H109.589V4.52941V0.764702H105.825H102.06V4.52941V8.29411Z" fill="white"/>
</svg>
