<svg width="108" height="49" viewBox="0 0 108 49" fill="none" xmlns="http://www.w3.org/2000/svg">
<path d="M16.944 47.096L15.92 46.456C15.0667 44.92 14.0427 43.384 12.848 41.848C11.7387 40.2267 10.4587 38.7333 9.008 37.368L0.944 29.56C0.688001 29.4747 0.560001 29.176 0.560001 28.664C0.730667 28.0667 1.712 26.6587 3.504 24.44C5.38133 22.136 7.984 19.1493 11.312 15.48C14.2987 12.152 16.9013 9.336 19.12 7.032C21.424 4.728 23.216 2.97866 24.496 1.784C25.6053 0.674665 26.672 0.119999 27.696 0.119999C28.3787 0.119999 28.6773 0.418666 28.592 1.016C28.5067 1.784 26.672 4.344 23.088 8.696C19.5893 13.048 14.5547 18.7653 7.984 25.848C11.568 32.1627 14.2987 36.8133 16.176 39.8C18.1387 42.7867 19.0347 44.536 18.864 45.048C18.608 46.4987 17.968 47.1813 16.944 47.096ZM37.147 43.384C34.5017 43.384 33.179 41.9333 33.179 39.032C33.179 34.68 35.3123 29.3467 39.579 23.032C43.7603 16.8027 47.899 12.9627 51.995 11.512C52.763 11.256 53.4883 11.0427 54.171 10.872C54.8537 10.7013 55.5363 10.616 56.219 10.616C59.291 10.616 61.5097 11.6827 62.875 13.816C63.131 14.1573 63.259 14.456 63.259 14.712C63.259 14.8827 62.9603 15.0107 62.363 15.096C61.851 15.1813 61.4243 15.48 61.083 15.992C59.035 19.32 58.011 24.312 58.011 30.968C58.011 37.112 59.3337 40.184 61.979 40.184C63.771 40.184 66.3737 38.3067 69.787 34.552C70.299 34.04 71.0243 33.144 71.963 31.864C72.9017 30.584 73.8403 29.304 74.779 28.024C75.7177 26.6587 76.3577 25.7627 76.699 25.336C76.955 25.08 77.1683 24.952 77.339 24.952C77.6803 24.952 77.851 25.2507 77.851 25.848C77.851 26.2747 77.595 26.872 77.083 27.64C75.2057 30.6267 73.0723 33.528 70.683 36.344C68.2937 39.16 66.2457 40.9947 64.539 41.848C63.003 42.616 61.467 43 59.931 43C54.7257 43 52.123 39.3307 52.123 31.992C52.123 31.3947 52.123 30.7973 52.123 30.2C52.2083 29.5173 52.2937 28.8347 52.379 28.152C46.5763 38.3067 41.499 43.384 37.147 43.384ZM39.323 39.544C40.2617 39.544 41.371 39.032 42.651 38.008C43.931 36.8987 45.2537 35.448 46.619 33.656C48.667 30.9253 50.587 28.024 52.379 24.952C54.171 21.88 55.7497 18.552 57.115 14.968C56.859 14.8827 56.475 14.84 55.963 14.84C52.4643 14.84 48.923 17.016 45.339 21.368C40.1337 27.5973 37.531 32.76 37.531 36.856C37.531 38.648 38.1283 39.544 39.323 39.544ZM79.901 48.12C79.389 48.12 79.1757 47.8213 79.261 47.224C79.4317 46.456 81.309 43.768 84.893 39.16C88.477 34.552 93.5543 28.7067 100.125 21.624C96.4557 15.6507 93.597 11.2133 91.549 8.312C89.5863 5.41066 88.6477 3.704 88.733 3.192C88.989 1.656 89.6717 0.97333 90.781 1.144L91.933 1.784C92.7863 3.32 93.725 4.81333 94.749 6.264C95.8583 7.62933 97.1383 9.03733 98.589 10.488C99.9543 11.8533 101.405 13.2613 102.941 14.712C104.477 16.1627 105.8 17.4853 106.909 18.68C107.165 18.7653 107.293 19.064 107.293 19.576C107.208 20.088 106.184 21.496 104.221 23.8C102.258 26.0187 99.613 29.0053 96.285 32.76C95.517 33.6133 94.2797 34.9787 92.573 36.856C90.8663 38.7333 89.117 40.6107 87.325 42.488C85.6183 44.28 84.253 45.6027 83.229 46.456C81.949 47.5653 80.8397 48.12 79.901 48.12Z" fill="white"/>
</svg>
